<svg width="742" height="72" viewBox="0 0 742 72" fill="none" xmlns="http://www.w3.org/2000/svg">
<rect x="3" width="738" height="71" fill="white"/>
<path d="M96.7926 21.7555C103.419 22.6509 104.86 31.0567 111.633 31.0444C115.144 31.0383 117.229 28.866 117.229 25.8023C117.229 19.1466 108.953 14.494 99.6687 14.494C87.584 14.494 79.8474 23.5056 79.8474 35.3442C79.8474 46.8871 88.0026 57.4306 100.324 57.4306C111.99 57.4306 117.109 49.9508 117.109 42.4119C117.109 40.4089 114.788 39.9377 113.598 41.2921C111.873 43.236 109.549 46.5934 104.431 46.5934C97.9434 46.5934 91.5359 39.3482 91.6333 27.9236C91.6801 22.5102 94.956 21.5066 96.7926 21.7555Z" fill="#FF0000"/>
<path d="M161.593 14.5123C148.975 14.5123 140.581 23.2873 140.581 36.3029C140.581 49.3777 150.818 57.506 161.593 57.506C173.259 57.506 182.724 49.3777 182.724 36.3029C182.726 23.2282 172.665 14.5123 161.593 14.5123ZM164.935 51.5887C159.163 51.5887 152.888 36.6742 152.888 26.8058C152.888 22.4816 154.401 20.4296 157.427 20.4296C163.255 20.4296 169.586 37.0066 169.586 45.3798C169.586 49.5939 168.073 51.5887 164.935 51.5887Z" fill="#FF0000"/>
<path d="M56.2148 15.0244H46.3341C45.4415 15.0244 44.8457 15.4955 44.8457 16.2604V16.495C44.8457 17.0294 45.1797 17.4843 45.6208 17.931L45.6229 17.933C45.6744 17.9861 45.7281 18.0371 45.7817 18.0901C46.0785 18.4164 46.6475 19.2242 46.2331 20.3134L46.2352 20.3154L38.3459 37.127L31.0956 22.09C31.0586 21.9962 31.0276 21.9065 31.0008 21.8167L30.7205 21.1109H30.7267L30.4133 20.3175L30.4154 20.3154C30.001 19.2262 30.57 18.4185 30.8668 18.0921C30.9204 18.0391 30.9741 17.9881 31.0256 17.9351L31.0277 17.933C31.4688 17.4863 31.8027 17.0315 31.8027 16.4971V16.2625C31.8027 15.4976 31.207 15.0264 30.3144 15.0264H14.4884C13.5958 15.0264 13 15.4976 13 16.2625V16.4971C13 16.9642 13.1422 17.3497 13.3752 17.7189L31.5718 53.9018C31.6296 54.0222 31.6873 54.1364 31.7471 54.2486L31.7986 54.3527C31.7986 54.3527 31.7966 54.3465 31.7966 54.3424C32.7139 56.0211 33.9261 56.8411 35.9154 56.8411C38.2964 56.8411 39.725 55.8396 40.6774 53.5429L57.3981 17.5638C57.5877 17.2497 57.7011 16.9132 57.7011 16.4971V16.2625C57.7031 15.4955 57.1074 15.0244 56.2148 15.0244Z" fill="#FF0000"/>
<path d="M74.7477 15.0244H62.5105C61.6179 15.0244 61.0221 15.4955 61.0221 16.2604V16.495C61.0221 17.0294 61.3561 17.4843 61.7972 17.931L61.7993 17.933C61.8508 17.9861 61.9044 18.0371 61.958 18.0901C62.1848 18.3389 62.5662 18.8713 62.5497 19.5934V52.268C62.5662 52.9901 62.1848 53.5224 61.958 53.7733C61.9044 53.8264 61.8508 53.8774 61.7993 53.9304L61.7972 53.9324C61.3561 54.3792 61.0221 54.834 61.0221 55.3684V55.603C61.0221 56.3679 61.6179 56.8391 62.5105 56.8391H67.1179V56.835H70.1359V56.8391H74.7434C75.6362 56.8391 76.232 56.3679 76.232 55.603V55.3684C76.232 54.834 75.8979 54.3792 75.4567 53.9324L75.4542 53.9304C75.4031 53.8774 75.3496 53.8264 75.296 53.7733C75.069 53.5245 74.6899 52.9921 74.7039 52.2721V19.5934C74.6899 18.8734 75.069 18.341 75.296 18.0921C75.3496 18.0391 75.4031 17.9881 75.4542 17.9351L75.4567 17.933C75.8979 17.4863 76.232 17.0315 76.232 16.4971V16.2625C76.2356 15.4955 75.6398 15.0244 74.7477 15.0244Z" fill="#FF0000"/>
<path d="M135.332 15.0244H123.097C122.205 15.0244 121.609 15.4955 121.609 16.2604V16.495C121.609 17.0294 121.943 17.4843 122.384 17.931L122.386 17.933C122.438 17.9861 122.491 18.0371 122.545 18.0901C122.772 18.3389 123.153 18.8734 123.136 19.5954V52.27C123.153 52.9921 122.772 53.5265 122.545 53.7754C122.491 53.8284 122.438 53.8794 122.386 53.9324L122.384 53.9345C121.943 54.3812 121.609 54.8361 121.609 55.3705V55.6051C121.609 56.37 122.205 56.8411 123.097 56.8411H127.705V56.837H130.723V56.8411H135.33C136.223 56.8411 136.819 56.37 136.819 55.6051V55.3705C136.819 54.8361 136.484 54.3812 136.043 53.9345L136.041 53.9324C135.99 53.8794 135.936 53.8284 135.883 53.7754C135.656 53.5265 135.276 52.9942 135.291 52.2741V19.5934C135.276 18.8734 135.656 18.341 135.883 18.0921C135.936 18.0391 135.99 17.9881 136.041 17.9351L136.043 17.933C136.484 17.4863 136.819 17.0315 136.819 16.4971V16.2625C136.821 15.4955 136.225 15.0244 135.332 15.0244Z" fill="#FF0000"/>
<path d="M177.35 15.7626H177.421C177.619 15.7626 177.669 15.2955 177.943 15.2955H178.057V17.2027C178.057 17.3883 177.889 17.4434 177.889 17.5617V17.576C177.889 17.6249 177.925 17.6555 177.98 17.6555H178.91C178.968 17.6555 179.005 17.6249 179.005 17.576V17.5617C179.005 17.4454 178.834 17.3883 178.834 17.2027V15.2955H178.947C179.221 15.2955 179.271 15.7626 179.469 15.7626H179.541C179.613 15.7626 179.658 15.7178 179.648 15.6464L179.571 15.1038C179.559 15.0141 179.522 14.9794 179.431 14.9794H177.457C177.366 14.9794 177.326 15.0141 177.316 15.1038L177.24 15.6464C177.232 15.7157 177.277 15.7626 177.35 15.7626Z" fill="#FF0000"/>
<path d="M182.845 17.2027L182.505 15.4301C182.47 15.2445 182.662 15.1894 182.662 15.0711V15.0569C182.662 15.0079 182.625 14.9773 182.567 14.9773H181.979C181.872 14.9773 181.8 15.0303 181.765 15.1323L181.293 16.5805L180.79 15.1242C180.755 15.0263 180.681 14.9773 180.574 14.9773H180.002C179.944 14.9773 179.907 15.0079 179.907 15.0569V15.0711C179.907 15.1874 180.091 15.2445 180.064 15.4301L179.794 17.2027C179.767 17.3883 179.638 17.4434 179.638 17.5617V17.5759C179.638 17.6249 179.675 17.6555 179.733 17.6555H180.24C180.297 17.6555 180.335 17.6249 180.335 17.5759V17.5617C180.335 17.4454 180.171 17.3883 180.196 17.2027L180.372 15.9686L181.012 17.5372C181.048 17.6167 181.101 17.6514 181.183 17.6514C181.268 17.6514 181.305 17.6127 181.332 17.5352L181.866 16.0461L182.068 17.2047C182.099 17.3862 181.93 17.4454 181.93 17.5637V17.578C181.93 17.6269 181.967 17.6575 182.024 17.6575H182.905C182.963 17.6575 183 17.6269 183 17.578V17.5637C183.002 17.4434 182.88 17.3863 182.845 17.2027Z" fill="#FF0000"/>
<mask id="path-3-inside-1_46_836" fill="white">
<path d="M278.793 21.7555C285.419 22.6509 286.86 31.0567 293.633 31.0444C297.144 31.0383 299.229 28.866 299.229 25.8023C299.229 19.1466 290.953 14.494 281.669 14.494C269.584 14.494 261.847 23.5056 261.847 35.3442C261.847 46.8871 270.003 57.4306 282.324 57.4306C293.99 57.4306 299.109 49.9508 299.109 42.4119C299.109 40.4089 296.788 39.9377 295.598 41.2921C293.873 43.236 291.549 46.5934 286.431 46.5934C279.943 46.5934 273.536 39.3482 273.633 27.9236C273.68 22.5102 276.956 21.5066 278.793 21.7555Z"/>
<path d="M343.593 14.5123C330.975 14.5123 322.581 23.2873 322.581 36.3029C322.581 49.3777 332.818 57.506 343.593 57.506C355.259 57.506 364.724 49.3777 364.724 36.3029C364.726 23.2282 354.665 14.5123 343.593 14.5123ZM346.935 51.5887C341.163 51.5887 334.888 36.6742 334.888 26.8058C334.888 22.4816 336.401 20.4296 339.427 20.4296C345.255 20.4296 351.586 37.0066 351.586 45.3798C351.586 49.5939 350.073 51.5887 346.935 51.5887Z"/>
<path d="M238.215 15.0244H228.334C227.441 15.0244 226.846 15.4955 226.846 16.2604V16.495C226.846 17.0294 227.18 17.4843 227.621 17.931L227.623 17.933C227.674 17.9861 227.728 18.0371 227.782 18.0901C228.079 18.4164 228.647 19.2242 228.233 20.3134L228.235 20.3154L220.346 37.127L213.096 22.09C213.059 21.9962 213.028 21.9065 213.001 21.8167L212.72 21.1109H212.727L212.413 20.3175L212.415 20.3154C212.001 19.2262 212.57 18.4185 212.867 18.0921C212.92 18.0391 212.974 17.9881 213.026 17.9351L213.028 17.933C213.469 17.4863 213.803 17.0315 213.803 16.4971V16.2625C213.803 15.4976 213.207 15.0264 212.314 15.0264H196.488C195.596 15.0264 195 15.4976 195 16.2625V16.4971C195 16.9642 195.142 17.3497 195.375 17.7189L213.572 53.9018C213.63 54.0222 213.687 54.1364 213.747 54.2486L213.799 54.3527C213.799 54.3527 213.797 54.3465 213.797 54.3424C214.714 56.0211 215.926 56.8411 217.915 56.8411C220.296 56.8411 221.725 55.8396 222.677 53.5429L239.398 17.5638C239.588 17.2497 239.701 16.9132 239.701 16.4971V16.2625C239.703 15.4955 239.107 15.0244 238.215 15.0244Z"/>
<path d="M256.748 15.0244H244.51C243.618 15.0244 243.022 15.4955 243.022 16.2604V16.495C243.022 17.0294 243.356 17.4843 243.797 17.931L243.799 17.933C243.851 17.9861 243.904 18.0371 243.958 18.0901C244.185 18.3389 244.566 18.8713 244.55 19.5934V52.268C244.566 52.9901 244.185 53.5224 243.958 53.7733C243.904 53.8264 243.851 53.8774 243.799 53.9304L243.797 53.9324C243.356 54.3792 243.022 54.834 243.022 55.3684V55.603C243.022 56.3679 243.618 56.8391 244.51 56.8391H249.118V56.835H252.136V56.8391H256.743C257.636 56.8391 258.232 56.3679 258.232 55.603V55.3684C258.232 54.834 257.898 54.3792 257.457 53.9324L257.454 53.9304C257.403 53.8774 257.35 53.8264 257.296 53.7733C257.069 53.5245 256.69 52.9921 256.704 52.2721V19.5934C256.69 18.8734 257.069 18.341 257.296 18.0921C257.35 18.0391 257.403 17.9881 257.454 17.9351L257.457 17.933C257.898 17.4863 258.232 17.0315 258.232 16.4971V16.2625C258.236 15.4955 257.64 15.0244 256.748 15.0244Z"/>
<path d="M317.332 15.0244H305.097C304.205 15.0244 303.609 15.4955 303.609 16.2604V16.495C303.609 17.0294 303.943 17.4843 304.384 17.931L304.386 17.933C304.438 17.9861 304.491 18.0371 304.545 18.0901C304.772 18.3389 305.153 18.8734 305.136 19.5954V52.27C305.153 52.9921 304.772 53.5265 304.545 53.7754C304.491 53.8284 304.438 53.8794 304.386 53.9324L304.384 53.9345C303.943 54.3812 303.609 54.8361 303.609 55.3705V55.6051C303.609 56.3699 304.205 56.8411 305.097 56.8411H309.705V56.837H312.723V56.8411H317.33C318.223 56.8411 318.819 56.3699 318.819 55.6051V55.3705C318.819 54.8361 318.484 54.3812 318.043 53.9345L318.041 53.9324C317.99 53.8794 317.936 53.8284 317.883 53.7754C317.656 53.5265 317.276 52.9942 317.291 52.2741V19.5934C317.276 18.8734 317.656 18.341 317.883 18.0921C317.936 18.0391 317.99 17.9881 318.041 17.9351L318.043 17.933C318.484 17.4863 318.819 17.0315 318.819 16.4971V16.2625C318.821 15.4955 318.225 15.0244 317.332 15.0244Z"/>
<path d="M359.35 15.7626H359.421C359.619 15.7626 359.669 15.2955 359.943 15.2955H360.057V17.2027C360.057 17.3883 359.889 17.4434 359.889 17.5617V17.576C359.889 17.6249 359.925 17.6555 359.98 17.6555H360.91C360.968 17.6555 361.005 17.6249 361.005 17.576V17.5617C361.005 17.4454 360.834 17.3883 360.834 17.2027V15.2955H360.947C361.221 15.2955 361.271 15.7626 361.469 15.7626H361.541C361.613 15.7626 361.658 15.7178 361.648 15.6464L361.571 15.1038C361.559 15.0141 361.522 14.9794 361.431 14.9794H359.457C359.366 14.9794 359.326 15.0141 359.316 15.1038L359.24 15.6464C359.232 15.7157 359.277 15.7626 359.35 15.7626Z"/>
<path d="M364.845 17.2027L364.505 15.4301C364.47 15.2445 364.662 15.1894 364.662 15.0711V15.0569C364.662 15.0079 364.625 14.9773 364.567 14.9773H363.979C363.872 14.9773 363.8 15.0303 363.765 15.1323L363.293 16.5805L362.79 15.1242C362.755 15.0263 362.681 14.9773 362.574 14.9773H362.002C361.944 14.9773 361.907 15.0079 361.907 15.0569V15.0711C361.907 15.1874 362.091 15.2445 362.064 15.4301L361.794 17.2027C361.767 17.3883 361.638 17.4434 361.638 17.5617V17.5759C361.638 17.6249 361.675 17.6555 361.733 17.6555H362.24C362.297 17.6555 362.335 17.6249 362.335 17.5759V17.5617C362.335 17.4454 362.171 17.3883 362.196 17.2027L362.372 15.9686L363.012 17.5372C363.048 17.6167 363.101 17.6514 363.183 17.6514C363.268 17.6514 363.305 17.6127 363.332 17.5352L363.866 16.0461L364.068 17.2047C364.099 17.3862 363.93 17.4454 363.93 17.5637V17.578C363.93 17.6269 363.967 17.6575 364.024 17.6575H364.905C364.963 17.6575 365 17.6269 365 17.578V17.5637C365.002 17.4434 364.88 17.3863 364.845 17.2027Z"/>
</mask>
<path d="M278.793 21.7555C285.419 22.6509 286.86 31.0567 293.633 31.0444C297.144 31.0383 299.229 28.866 299.229 25.8023C299.229 19.1466 290.953 14.494 281.669 14.494C269.584 14.494 261.847 23.5056 261.847 35.3442C261.847 46.8871 270.003 57.4306 282.324 57.4306C293.99 57.4306 299.109 49.9508 299.109 42.4119C299.109 40.4089 296.788 39.9377 295.598 41.2921C293.873 43.236 291.549 46.5934 286.431 46.5934C279.943 46.5934 273.536 39.3482 273.633 27.9236C273.68 22.5102 276.956 21.5066 278.793 21.7555Z" stroke="#FF0000" stroke-width="2" mask="url(#path-3-inside-1_46_836)"/>
<path d="M343.593 14.5123C330.975 14.5123 322.581 23.2873 322.581 36.3029C322.581 49.3777 332.818 57.506 343.593 57.506C355.259 57.506 364.724 49.3777 364.724 36.3029C364.726 23.2282 354.665 14.5123 343.593 14.5123ZM346.935 51.5887C341.163 51.5887 334.888 36.6742 334.888 26.8058C334.888 22.4816 336.401 20.4296 339.427 20.4296C345.255 20.4296 351.586 37.0066 351.586 45.3798C351.586 49.5939 350.073 51.5887 346.935 51.5887Z" stroke="#FF0000" stroke-width="2" mask="url(#path-3-inside-1_46_836)"/>
<path d="M238.215 15.0244H228.334C227.441 15.0244 226.846 15.4955 226.846 16.2604V16.495C226.846 17.0294 227.18 17.4843 227.621 17.931L227.623 17.933C227.674 17.9861 227.728 18.0371 227.782 18.0901C228.079 18.4164 228.647 19.2242 228.233 20.3134L228.235 20.3154L220.346 37.127L213.096 22.09C213.059 21.9962 213.028 21.9065 213.001 21.8167L212.72 21.1109H212.727L212.413 20.3175L212.415 20.3154C212.001 19.2262 212.57 18.4185 212.867 18.0921C212.92 18.0391 212.974 17.9881 213.026 17.9351L213.028 17.933C213.469 17.4863 213.803 17.0315 213.803 16.4971V16.2625C213.803 15.4976 213.207 15.0264 212.314 15.0264H196.488C195.596 15.0264 195 15.4976 195 16.2625V16.4971C195 16.9642 195.142 17.3497 195.375 17.7189L213.572 53.9018C213.63 54.0222 213.687 54.1364 213.747 54.2486L213.799 54.3527C213.799 54.3527 213.797 54.3465 213.797 54.3424C214.714 56.0211 215.926 56.8411 217.915 56.8411C220.296 56.8411 221.725 55.8396 222.677 53.5429L239.398 17.5638C239.588 17.2497 239.701 16.9132 239.701 16.4971V16.2625C239.703 15.4955 239.107 15.0244 238.215 15.0244Z" stroke="#FF0000" stroke-width="2" mask="url(#path-3-inside-1_46_836)"/>
<path d="M256.748 15.0244H244.51C243.618 15.0244 243.022 15.4955 243.022 16.2604V16.495C243.022 17.0294 243.356 17.4843 243.797 17.931L243.799 17.933C243.851 17.9861 243.904 18.0371 243.958 18.0901C244.185 18.3389 244.566 18.8713 244.55 19.5934V52.268C244.566 52.9901 244.185 53.5224 243.958 53.7733C243.904 53.8264 243.851 53.8774 243.799 53.9304L243.797 53.9324C243.356 54.3792 243.022 54.834 243.022 55.3684V55.603C243.022 56.3679 243.618 56.8391 244.51 56.8391H249.118V56.835H252.136V56.8391H256.743C257.636 56.8391 258.232 56.3679 258.232 55.603V55.3684C258.232 54.834 257.898 54.3792 257.457 53.9324L257.454 53.9304C257.403 53.8774 257.35 53.8264 257.296 53.7733C257.069 53.5245 256.69 52.9921 256.704 52.2721V19.5934C256.69 18.8734 257.069 18.341 257.296 18.0921C257.35 18.0391 257.403 17.9881 257.454 17.9351L257.457 17.933C257.898 17.4863 258.232 17.0315 258.232 16.4971V16.2625C258.236 15.4955 257.64 15.0244 256.748 15.0244Z" stroke="#FF0000" stroke-width="2" mask="url(#path-3-inside-1_46_836)"/>
<path d="M317.332 15.0244H305.097C304.205 15.0244 303.609 15.4955 303.609 16.2604V16.495C303.609 17.0294 303.943 17.4843 304.384 17.931L304.386 17.933C304.438 17.9861 304.491 18.0371 304.545 18.0901C304.772 18.3389 305.153 18.8734 305.136 19.5954V52.27C305.153 52.9921 304.772 53.5265 304.545 53.7754C304.491 53.8284 304.438 53.8794 304.386 53.9324L304.384 53.9345C303.943 54.3812 303.609 54.8361 303.609 55.3705V55.6051C303.609 56.3699 304.205 56.8411 305.097 56.8411H309.705V56.837H312.723V56.8411H317.33C318.223 56.8411 318.819 56.3699 318.819 55.6051V55.3705C318.819 54.8361 318.484 54.3812 318.043 53.9345L318.041 53.9324C317.99 53.8794 317.936 53.8284 317.883 53.7754C317.656 53.5265 317.276 52.9942 317.291 52.2741V19.5934C317.276 18.8734 317.656 18.341 317.883 18.0921C317.936 18.0391 317.99 17.9881 318.041 17.9351L318.043 17.933C318.484 17.4863 318.819 17.0315 318.819 16.4971V16.2625C318.821 15.4955 318.225 15.0244 317.332 15.0244Z" stroke="#FF0000" stroke-width="2" mask="url(#path-3-inside-1_46_836)"/>
<path d="M359.35 15.7626H359.421C359.619 15.7626 359.669 15.2955 359.943 15.2955H360.057V17.2027C360.057 17.3883 359.889 17.4434 359.889 17.5617V17.576C359.889 17.6249 359.925 17.6555 359.98 17.6555H360.91C360.968 17.6555 361.005 17.6249 361.005 17.576V17.5617C361.005 17.4454 360.834 17.3883 360.834 17.2027V15.2955H360.947C361.221 15.2955 361.271 15.7626 361.469 15.7626H361.541C361.613 15.7626 361.658 15.7178 361.648 15.6464L361.571 15.1038C361.559 15.0141 361.522 14.9794 361.431 14.9794H359.457C359.366 14.9794 359.326 15.0141 359.316 15.1038L359.24 15.6464C359.232 15.7157 359.277 15.7626 359.35 15.7626Z" stroke="#FF0000" stroke-width="2" mask="url(#path-3-inside-1_46_836)"/>
<path d="M364.845 17.2027L364.505 15.4301C364.47 15.2445 364.662 15.1894 364.662 15.0711V15.0569C364.662 15.0079 364.625 14.9773 364.567 14.9773H363.979C363.872 14.9773 363.8 15.0303 363.765 15.1323L363.293 16.5805L362.79 15.1242C362.755 15.0263 362.681 14.9773 362.574 14.9773H362.002C361.944 14.9773 361.907 15.0079 361.907 15.0569V15.0711C361.907 15.1874 362.091 15.2445 362.064 15.4301L361.794 17.2027C361.767 17.3883 361.638 17.4434 361.638 17.5617V17.5759C361.638 17.6249 361.675 17.6555 361.733 17.6555H362.24C362.297 17.6555 362.335 17.6249 362.335 17.5759V17.5617C362.335 17.4454 362.171 17.3883 362.196 17.2027L362.372 15.9686L363.012 17.5372C363.048 17.6167 363.101 17.6514 363.183 17.6514C363.268 17.6514 363.305 17.6127 363.332 17.5352L363.866 16.0461L364.068 17.2047C364.099 17.3862 363.93 17.4454 363.93 17.5637V17.578C363.93 17.6269 363.967 17.6575 364.024 17.6575H364.905C364.963 17.6575 365 17.6269 365 17.578V17.5637C365.002 17.4434 364.88 17.3863 364.845 17.2027Z" stroke="#FF0000" stroke-width="2" mask="url(#path-3-inside-1_46_836)"/>
<path d="M460.793 21.7555C467.419 22.6509 468.86 31.0567 475.633 31.0444C479.144 31.0383 481.229 28.866 481.229 25.8023C481.229 19.1466 472.953 14.494 463.669 14.494C451.584 14.494 443.847 23.5056 443.847 35.3442C443.847 46.8871 452.003 57.4306 464.324 57.4306C475.99 57.4306 481.109 49.9508 481.109 42.4119C481.109 40.4089 478.788 39.9377 477.598 41.2921C475.873 43.236 473.549 46.5934 468.431 46.5934C461.943 46.5934 455.536 39.3482 455.633 27.9236C455.68 22.5102 458.956 21.5066 460.793 21.7555Z" fill="#FF0000"/>
<path d="M525.593 14.5123C512.975 14.5123 504.581 23.2873 504.581 36.3029C504.581 49.3777 514.818 57.506 525.593 57.506C537.259 57.506 546.724 49.3777 546.724 36.3029C546.726 23.2282 536.665 14.5123 525.593 14.5123ZM528.935 51.5887C523.163 51.5887 516.888 36.6742 516.888 26.8058C516.888 22.4816 518.401 20.4296 521.427 20.4296C527.255 20.4296 533.586 37.0066 533.586 45.3798C533.586 49.5939 532.073 51.5887 528.935 51.5887Z" fill="#FF0000"/>
<path d="M420.215 15.0244H410.334C409.441 15.0244 408.846 15.4955 408.846 16.2604V16.495C408.846 17.0294 409.18 17.4843 409.621 17.931L409.623 17.933C409.674 17.9861 409.728 18.0371 409.782 18.0901C410.079 18.4164 410.647 19.2242 410.233 20.3134L410.235 20.3154L402.346 37.127L395.096 22.09C395.059 21.9962 395.028 21.9065 395.001 21.8167L394.72 21.1109H394.727L394.413 20.3175L394.415 20.3154C394.001 19.2262 394.57 18.4185 394.867 18.0921C394.92 18.0391 394.974 17.9881 395.026 17.9351L395.028 17.933C395.469 17.4863 395.803 17.0315 395.803 16.4971V16.2625C395.803 15.4976 395.207 15.0264 394.314 15.0264H378.488C377.596 15.0264 377 15.4976 377 16.2625V16.4971C377 16.9642 377.142 17.3497 377.375 17.7189L395.572 53.9018C395.63 54.0222 395.687 54.1364 395.747 54.2486L395.799 54.3527C395.799 54.3527 395.797 54.3465 395.797 54.3424C396.714 56.0211 397.926 56.8411 399.915 56.8411C402.296 56.8411 403.725 55.8396 404.677 53.5429L421.398 17.5638C421.588 17.2497 421.701 16.9132 421.701 16.4971V16.2625C421.703 15.4955 421.107 15.0244 420.215 15.0244Z" fill="#FF0000"/>
<path d="M438.748 15.0244H426.51C425.618 15.0244 425.022 15.4955 425.022 16.2604V16.495C425.022 17.0294 425.356 17.4843 425.797 17.931L425.799 17.933C425.851 17.9861 425.904 18.0371 425.958 18.0901C426.185 18.3389 426.566 18.8713 426.55 19.5934V52.268C426.566 52.9901 426.185 53.5224 425.958 53.7733C425.904 53.8264 425.851 53.8774 425.799 53.9304L425.797 53.9324C425.356 54.3792 425.022 54.834 425.022 55.3684V55.603C425.022 56.3679 425.618 56.8391 426.51 56.8391H431.118V56.835H434.136V56.8391H438.743C439.636 56.8391 440.232 56.3679 440.232 55.603V55.3684C440.232 54.834 439.898 54.3792 439.457 53.9324L439.454 53.9304C439.403 53.8774 439.35 53.8264 439.296 53.7733C439.069 53.5245 438.69 52.9921 438.704 52.2721V19.5934C438.69 18.8734 439.069 18.341 439.296 18.0921C439.35 18.0391 439.403 17.9881 439.454 17.9351L439.457 17.933C439.898 17.4863 440.232 17.0315 440.232 16.4971V16.2625C440.236 15.4955 439.64 15.0244 438.748 15.0244Z" fill="#FF0000"/>
<path d="M499.332 15.0244H487.097C486.205 15.0244 485.609 15.4955 485.609 16.2604V16.495C485.609 17.0294 485.943 17.4843 486.384 17.931L486.386 17.933C486.438 17.9861 486.491 18.0371 486.545 18.0901C486.772 18.3389 487.153 18.8734 487.136 19.5954V52.27C487.153 52.9921 486.772 53.5265 486.545 53.7754C486.491 53.8284 486.438 53.8794 486.386 53.9324L486.384 53.9345C485.943 54.3812 485.609 54.8361 485.609 55.3705V55.6051C485.609 56.3699 486.205 56.8411 487.097 56.8411H491.705V56.837H494.723V56.8411H499.33C500.223 56.8411 500.819 56.3699 500.819 55.6051V55.3705C500.819 54.8361 500.484 54.3812 500.043 53.9345L500.041 53.9324C499.99 53.8794 499.936 53.8284 499.883 53.7754C499.656 53.5265 499.276 52.9942 499.291 52.2741V19.5934C499.276 18.8734 499.656 18.341 499.883 18.0921C499.936 18.0391 499.99 17.9881 500.041 17.9351L500.043 17.933C500.484 17.4863 500.819 17.0315 500.819 16.4971V16.2625C500.821 15.4955 500.225 15.0244 499.332 15.0244Z" fill="#FF0000"/>
<path d="M541.35 15.7626H541.421C541.619 15.7626 541.669 15.2955 541.943 15.2955H542.057V17.2027C542.057 17.3883 541.889 17.4434 541.889 17.5617V17.576C541.889 17.6249 541.925 17.6555 541.98 17.6555H542.91C542.968 17.6555 543.005 17.6249 543.005 17.576V17.5617C543.005 17.4454 542.834 17.3883 542.834 17.2027V15.2955H542.947C543.221 15.2955 543.271 15.7626 543.469 15.7626H543.541C543.613 15.7626 543.658 15.7178 543.648 15.6464L543.571 15.1038C543.559 15.0141 543.522 14.9794 543.431 14.9794H541.457C541.366 14.9794 541.326 15.0141 541.316 15.1038L541.24 15.6464C541.232 15.7157 541.277 15.7626 541.35 15.7626Z" fill="#FF0000"/>
<path d="M546.845 17.2027L546.505 15.4301C546.47 15.2445 546.662 15.1894 546.662 15.0711V15.0569C546.662 15.0079 546.625 14.9773 546.567 14.9773H545.979C545.872 14.9773 545.8 15.0303 545.765 15.1323L545.293 16.5805L544.79 15.1242C544.755 15.0263 544.681 14.9773 544.574 14.9773H544.002C543.944 14.9773 543.907 15.0079 543.907 15.0569V15.0711C543.907 15.1874 544.091 15.2445 544.064 15.4301L543.794 17.2027C543.767 17.3883 543.638 17.4434 543.638 17.5617V17.5759C543.638 17.6249 543.675 17.6555 543.733 17.6555H544.24C544.297 17.6555 544.335 17.6249 544.335 17.5759V17.5617C544.335 17.4454 544.171 17.3883 544.196 17.2027L544.372 15.9686L545.012 17.5372C545.048 17.6167 545.101 17.6514 545.183 17.6514C545.268 17.6514 545.305 17.6127 545.332 17.5352L545.866 16.0461L546.068 17.2047C546.099 17.3862 545.93 17.4454 545.93 17.5637V17.578C545.93 17.6269 545.967 17.6575 546.024 17.6575H546.905C546.963 17.6575 547 17.6269 547 17.578V17.5637C547.002 17.4434 546.88 17.3863 546.845 17.2027Z" fill="#FF0000"/>
<mask id="path-5-inside-2_46_836" fill="white">
<path d="M642.793 21.7555C649.419 22.6509 650.86 31.0567 657.633 31.0444C661.144 31.0383 663.229 28.866 663.229 25.8023C663.229 19.1466 654.953 14.494 645.669 14.494C633.584 14.494 625.847 23.5056 625.847 35.3442C625.847 46.8871 634.003 57.4306 646.324 57.4306C657.99 57.4306 663.109 49.9508 663.109 42.4119C663.109 40.4089 660.788 39.9377 659.598 41.2921C657.873 43.236 655.549 46.5934 650.431 46.5934C643.943 46.5934 637.536 39.3482 637.633 27.9236C637.68 22.5102 640.956 21.5066 642.793 21.7555Z"/>
<path d="M707.593 14.5123C694.975 14.5123 686.581 23.2873 686.581 36.3029C686.581 49.3777 696.818 57.506 707.593 57.506C719.259 57.506 728.724 49.3777 728.724 36.3029C728.726 23.2282 718.665 14.5123 707.593 14.5123ZM710.935 51.5887C705.163 51.5887 698.888 36.6742 698.888 26.8058C698.888 22.4816 700.401 20.4296 703.427 20.4296C709.255 20.4296 715.586 37.0066 715.586 45.3798C715.586 49.5939 714.073 51.5887 710.935 51.5887Z"/>
<path d="M602.215 15.0244H592.334C591.441 15.0244 590.846 15.4955 590.846 16.2604V16.495C590.846 17.0294 591.18 17.4843 591.621 17.931L591.623 17.933C591.674 17.9861 591.728 18.0371 591.782 18.0901C592.079 18.4164 592.647 19.2242 592.233 20.3134L592.235 20.3154L584.346 37.127L577.096 22.09C577.059 21.9962 577.028 21.9065 577.001 21.8167L576.72 21.1109H576.727L576.413 20.3175L576.415 20.3154C576.001 19.2262 576.57 18.4185 576.867 18.0921C576.92 18.0391 576.974 17.9881 577.026 17.9351L577.028 17.933C577.469 17.4863 577.803 17.0315 577.803 16.4971V16.2625C577.803 15.4976 577.207 15.0264 576.314 15.0264H560.488C559.596 15.0264 559 15.4976 559 16.2625V16.4971C559 16.9642 559.142 17.3497 559.375 17.7189L577.572 53.9018C577.63 54.0222 577.687 54.1364 577.747 54.2486L577.799 54.3527C577.799 54.3527 577.797 54.3465 577.797 54.3424C578.714 56.0211 579.926 56.8411 581.915 56.8411C584.296 56.8411 585.725 55.8396 586.677 53.5429L603.398 17.5638C603.588 17.2497 603.701 16.9132 603.701 16.4971V16.2625C603.703 15.4955 603.107 15.0244 602.215 15.0244Z"/>
<path d="M620.748 15.0244H608.51C607.618 15.0244 607.022 15.4955 607.022 16.2604V16.495C607.022 17.0294 607.356 17.4843 607.797 17.931L607.799 17.933C607.851 17.9861 607.904 18.0371 607.958 18.0901C608.185 18.3389 608.566 18.8713 608.55 19.5934V52.268C608.566 52.9901 608.185 53.5224 607.958 53.7733C607.904 53.8264 607.851 53.8774 607.799 53.9304L607.797 53.9324C607.356 54.3792 607.022 54.834 607.022 55.3684V55.603C607.022 56.3679 607.618 56.8391 608.51 56.8391H613.118V56.835H616.136V56.8391H620.743C621.636 56.8391 622.232 56.3679 622.232 55.603V55.3684C622.232 54.834 621.898 54.3792 621.457 53.9324L621.454 53.9304C621.403 53.8774 621.35 53.8264 621.296 53.7733C621.069 53.5245 620.69 52.9921 620.704 52.2721V19.5934C620.69 18.8734 621.069 18.341 621.296 18.0921C621.35 18.0391 621.403 17.9881 621.454 17.9351L621.457 17.933C621.898 17.4863 622.232 17.0315 622.232 16.4971V16.2625C622.236 15.4955 621.64 15.0244 620.748 15.0244Z"/>
<path d="M681.332 15.0244H669.097C668.205 15.0244 667.609 15.4955 667.609 16.2604V16.495C667.609 17.0294 667.943 17.4843 668.384 17.931L668.386 17.933C668.438 17.9861 668.491 18.0371 668.545 18.0901C668.772 18.3389 669.153 18.8734 669.136 19.5954V52.27C669.153 52.9921 668.772 53.5265 668.545 53.7754C668.491 53.8284 668.438 53.8794 668.386 53.9324L668.384 53.9345C667.943 54.3812 667.609 54.8361 667.609 55.3705V55.6051C667.609 56.3699 668.205 56.8411 669.097 56.8411H673.705V56.837H676.723V56.8411H681.33C682.223 56.8411 682.819 56.3699 682.819 55.6051V55.3705C682.819 54.8361 682.484 54.3812 682.043 53.9345L682.041 53.9324C681.99 53.8794 681.936 53.8284 681.883 53.7754C681.656 53.5265 681.276 52.9942 681.291 52.2741V19.5934C681.276 18.8734 681.656 18.341 681.883 18.0921C681.936 18.0391 681.99 17.9881 682.041 17.9351L682.043 17.933C682.484 17.4863 682.819 17.0315 682.819 16.4971V16.2625C682.821 15.4955 682.225 15.0244 681.332 15.0244Z"/>
<path d="M723.35 15.7626H723.421C723.619 15.7626 723.669 15.2955 723.943 15.2955H724.057V17.2027C724.057 17.3883 723.889 17.4434 723.889 17.5617V17.576C723.889 17.6249 723.925 17.6555 723.98 17.6555H724.91C724.968 17.6555 725.005 17.6249 725.005 17.576V17.5617C725.005 17.4454 724.834 17.3883 724.834 17.2027V15.2955H724.947C725.221 15.2955 725.271 15.7626 725.469 15.7626H725.541C725.613 15.7626 725.658 15.7178 725.648 15.6464L725.571 15.1038C725.559 15.0141 725.522 14.9794 725.431 14.9794H723.457C723.366 14.9794 723.326 15.0141 723.316 15.1038L723.24 15.6464C723.232 15.7157 723.277 15.7626 723.35 15.7626Z"/>
<path d="M728.845 17.2027L728.505 15.4301C728.47 15.2445 728.662 15.1894 728.662 15.0711V15.0569C728.662 15.0079 728.625 14.9773 728.567 14.9773H727.979C727.872 14.9773 727.8 15.0303 727.765 15.1323L727.293 16.5805L726.79 15.1242C726.755 15.0263 726.681 14.9773 726.574 14.9773H726.002C725.944 14.9773 725.907 15.0079 725.907 15.0569V15.0711C725.907 15.1874 726.091 15.2445 726.064 15.4301L725.794 17.2027C725.767 17.3883 725.638 17.4434 725.638 17.5617V17.5759C725.638 17.6249 725.675 17.6555 725.733 17.6555H726.24C726.297 17.6555 726.335 17.6249 726.335 17.5759V17.5617C726.335 17.4454 726.171 17.3883 726.196 17.2027L726.372 15.9686L727.012 17.5372C727.048 17.6167 727.101 17.6514 727.183 17.6514C727.268 17.6514 727.305 17.6127 727.332 17.5352L727.866 16.0461L728.068 17.2047C728.099 17.3862 727.93 17.4454 727.93 17.5637V17.578C727.93 17.6269 727.967 17.6575 728.024 17.6575H728.905C728.963 17.6575 729 17.6269 729 17.578V17.5637C729.002 17.4434 728.88 17.3863 728.845 17.2027Z"/>
</mask>
<path d="M642.793 21.7555C649.419 22.6509 650.86 31.0567 657.633 31.0444C661.144 31.0383 663.229 28.866 663.229 25.8023C663.229 19.1466 654.953 14.494 645.669 14.494C633.584 14.494 625.847 23.5056 625.847 35.3442C625.847 46.8871 634.003 57.4306 646.324 57.4306C657.99 57.4306 663.109 49.9508 663.109 42.4119C663.109 40.4089 660.788 39.9377 659.598 41.2921C657.873 43.236 655.549 46.5934 650.431 46.5934C643.943 46.5934 637.536 39.3482 637.633 27.9236C637.68 22.5102 640.956 21.5066 642.793 21.7555Z" stroke="#FF0000" stroke-width="2" mask="url(#path-5-inside-2_46_836)"/>
<path d="M707.593 14.5123C694.975 14.5123 686.581 23.2873 686.581 36.3029C686.581 49.3777 696.818 57.506 707.593 57.506C719.259 57.506 728.724 49.3777 728.724 36.3029C728.726 23.2282 718.665 14.5123 707.593 14.5123ZM710.935 51.5887C705.163 51.5887 698.888 36.6742 698.888 26.8058C698.888 22.4816 700.401 20.4296 703.427 20.4296C709.255 20.4296 715.586 37.0066 715.586 45.3798C715.586 49.5939 714.073 51.5887 710.935 51.5887Z" stroke="#FF0000" stroke-width="2" mask="url(#path-5-inside-2_46_836)"/>
<path d="M602.215 15.0244H592.334C591.441 15.0244 590.846 15.4955 590.846 16.2604V16.495C590.846 17.0294 591.18 17.4843 591.621 17.931L591.623 17.933C591.674 17.9861 591.728 18.0371 591.782 18.0901C592.079 18.4164 592.647 19.2242 592.233 20.3134L592.235 20.3154L584.346 37.127L577.096 22.09C577.059 21.9962 577.028 21.9065 577.001 21.8167L576.72 21.1109H576.727L576.413 20.3175L576.415 20.3154C576.001 19.2262 576.57 18.4185 576.867 18.0921C576.92 18.0391 576.974 17.9881 577.026 17.9351L577.028 17.933C577.469 17.4863 577.803 17.0315 577.803 16.4971V16.2625C577.803 15.4976 577.207 15.0264 576.314 15.0264H560.488C559.596 15.0264 559 15.4976 559 16.2625V16.4971C559 16.9642 559.142 17.3497 559.375 17.7189L577.572 53.9018C577.63 54.0222 577.687 54.1364 577.747 54.2486L577.799 54.3527C577.799 54.3527 577.797 54.3465 577.797 54.3424C578.714 56.0211 579.926 56.8411 581.915 56.8411C584.296 56.8411 585.725 55.8396 586.677 53.5429L603.398 17.5638C603.588 17.2497 603.701 16.9132 603.701 16.4971V16.2625C603.703 15.4955 603.107 15.0244 602.215 15.0244Z" stroke="#FF0000" stroke-width="2" mask="url(#path-5-inside-2_46_836)"/>
<path d="M620.748 15.0244H608.51C607.618 15.0244 607.022 15.4955 607.022 16.2604V16.495C607.022 17.0294 607.356 17.4843 607.797 17.931L607.799 17.933C607.851 17.9861 607.904 18.0371 607.958 18.0901C608.185 18.3389 608.566 18.8713 608.55 19.5934V52.268C608.566 52.9901 608.185 53.5224 607.958 53.7733C607.904 53.8264 607.851 53.8774 607.799 53.9304L607.797 53.9324C607.356 54.3792 607.022 54.834 607.022 55.3684V55.603C607.022 56.3679 607.618 56.8391 608.51 56.8391H613.118V56.835H616.136V56.8391H620.743C621.636 56.8391 622.232 56.3679 622.232 55.603V55.3684C622.232 54.834 621.898 54.3792 621.457 53.9324L621.454 53.9304C621.403 53.8774 621.35 53.8264 621.296 53.7733C621.069 53.5245 620.69 52.9921 620.704 52.2721V19.5934C620.69 18.8734 621.069 18.341 621.296 18.0921C621.35 18.0391 621.403 17.9881 621.454 17.9351L621.457 17.933C621.898 17.4863 622.232 17.0315 622.232 16.4971V16.2625C622.236 15.4955 621.64 15.0244 620.748 15.0244Z" stroke="#FF0000" stroke-width="2" mask="url(#path-5-inside-2_46_836)"/>
<path d="M681.332 15.0244H669.097C668.205 15.0244 667.609 15.4955 667.609 16.2604V16.495C667.609 17.0294 667.943 17.4843 668.384 17.931L668.386 17.933C668.438 17.9861 668.491 18.0371 668.545 18.0901C668.772 18.3389 669.153 18.8734 669.136 19.5954V52.27C669.153 52.9921 668.772 53.5265 668.545 53.7754C668.491 53.8284 668.438 53.8794 668.386 53.9324L668.384 53.9345C667.943 54.3812 667.609 54.8361 667.609 55.3705V55.6051C667.609 56.3699 668.205 56.8411 669.097 56.8411H673.705V56.837H676.723V56.8411H681.33C682.223 56.8411 682.819 56.3699 682.819 55.6051V55.3705C682.819 54.8361 682.484 54.3812 682.043 53.9345L682.041 53.9324C681.99 53.8794 681.936 53.8284 681.883 53.7754C681.656 53.5265 681.276 52.9942 681.291 52.2741V19.5934C681.276 18.8734 681.656 18.341 681.883 18.0921C681.936 18.0391 681.99 17.9881 682.041 17.9351L682.043 17.933C682.484 17.4863 682.819 17.0315 682.819 16.4971V16.2625C682.821 15.4955 682.225 15.0244 681.332 15.0244Z" stroke="#FF0000" stroke-width="2" mask="url(#path-5-inside-2_46_836)"/>
<path d="M723.35 15.7626H723.421C723.619 15.7626 723.669 15.2955 723.943 15.2955H724.057V17.2027C724.057 17.3883 723.889 17.4434 723.889 17.5617V17.576C723.889 17.6249 723.925 17.6555 723.98 17.6555H724.91C724.968 17.6555 725.005 17.6249 725.005 17.576V17.5617C725.005 17.4454 724.834 17.3883 724.834 17.2027V15.2955H724.947C725.221 15.2955 725.271 15.7626 725.469 15.7626H725.541C725.613 15.7626 725.658 15.7178 725.648 15.6464L725.571 15.1038C725.559 15.0141 725.522 14.9794 725.431 14.9794H723.457C723.366 14.9794 723.326 15.0141 723.316 15.1038L723.24 15.6464C723.232 15.7157 723.277 15.7626 723.35 15.7626Z" stroke="#FF0000" stroke-width="2" mask="url(#path-5-inside-2_46_836)"/>
<path d="M728.845 17.2027L728.505 15.4301C728.47 15.2445 728.662 15.1894 728.662 15.0711V15.0569C728.662 15.0079 728.625 14.9773 728.567 14.9773H727.979C727.872 14.9773 727.8 15.0303 727.765 15.1323L727.293 16.5805L726.79 15.1242C726.755 15.0263 726.681 14.9773 726.574 14.9773H726.002C725.944 14.9773 725.907 15.0079 725.907 15.0569V15.0711C725.907 15.1874 726.091 15.2445 726.064 15.4301L725.794 17.2027C725.767 17.3883 725.638 17.4434 725.638 17.5617V17.5759C725.638 17.6249 725.675 17.6555 725.733 17.6555H726.24C726.297 17.6555 726.335 17.6249 726.335 17.5759V17.5617C726.335 17.4454 726.171 17.3883 726.196 17.2027L726.372 15.9686L727.012 17.5372C727.048 17.6167 727.101 17.6514 727.183 17.6514C727.268 17.6514 727.305 17.6127 727.332 17.5352L727.866 16.0461L728.068 17.2047C728.099 17.3862 727.93 17.4454 727.93 17.5637V17.578C727.93 17.6269 727.967 17.6575 728.024 17.6575H728.905C728.963 17.6575 729 17.6269 729 17.578V17.5637C729.002 17.4434 728.88 17.3863 728.845 17.2027Z" stroke="#FF0000" stroke-width="2" mask="url(#path-5-inside-2_46_836)"/>
</svg>
